<?xml version="1.0" encoding="UTF-8"?>
<svg version="1.1" xmlns="http://www.w3.org/2000/svg" width="80" height="80">
<path d="M0 0 C0.79857422 -0.01224609 1.59714844 -0.02449219 2.41992188 -0.03710938 C10.95606879 -0.05832598 10.95606879 -0.05832598 14.0625 2.1875 C16.36011668 8.29613356 16.30960541 14.22530609 16.1875 20.6875 C16.17847656 21.6053125 16.16945312 22.523125 16.16015625 23.46875 C16.13682432 25.70861556 16.10409235 27.94791183 16.0625 30.1875 C15.0725 30.5175 14.0825 30.8475 13.0625 31.1875 C12.98 32.033125 12.8975 32.87875 12.8125 33.75 C11.90516147 37.90863491 10.29708727 40.58332699 8.0625 44.1875 C8.78179687 44.30351563 9.50109375 44.41953125 10.2421875 44.5390625 C13.17530462 45.21343569 15.50503177 46.20896099 18.1875 47.5625 C19.03570312 47.98273437 19.88390625 48.40296875 20.7578125 48.8359375 C23.0625 50.1875 23.0625 50.1875 26.0625 53.1875 C26.0625 56.4875 26.0625 59.7875 26.0625 63.1875 C8.9025 63.1875 -8.2575 63.1875 -25.9375 63.1875 C-25.9375 59.8875 -25.9375 56.5875 -25.9375 53.1875 C-21.11083241 48.53018916 -14.89071235 44.1875 -7.9375 44.1875 C-8.2984375 43.58421875 -8.659375 42.9809375 -9.03125 42.359375 C-9.72734375 41.16054687 -9.72734375 41.16054687 -10.4375 39.9375 C-10.9015625 39.14859375 -11.365625 38.3596875 -11.84375 37.546875 C-12.9375 35.1875 -12.9375 35.1875 -12.9375 31.1875 C-13.9275 30.8575 -14.9175 30.5275 -15.9375 30.1875 C-16.02595016 27.04184954 -16.07836835 23.89652625 -16.125 20.75 C-16.16270508 19.43225586 -16.16270508 19.43225586 -16.20117188 18.08789062 C-16.26509369 12.3136203 -16.04046623 6.24356537 -12.9375 1.1875 C-8.87577075 -0.42346312 -4.30689845 0.00345936 0 0 Z M-10.9375 4.1875 C-12.68162179 8.86909006 -12.9375 12.08440112 -12.9375 17.1875 C-4.3575 17.1875 4.2225 17.1875 13.0625 17.1875 C12.53973189 8.25209421 12.53973189 8.25209421 11.0625 4.1875 C7.35803447 2.95267816 3.9181992 3.04191798 0.0625 3.0625 C-1.02417969 3.05669922 -1.02417969 3.05669922 -2.1328125 3.05078125 C-5.33032879 3.05668073 -7.88332607 3.16944202 -10.9375 4.1875 Z M-13.9375 19.1875 C-12.9375 23.1875 -12.9375 23.1875 -12.9375 23.1875 Z M-8.9375 19.1875 C-12.10016488 25.28514362 -12.10016488 25.28514362 -11.16796875 31.125 C-10.82378906 31.805625 -10.47960937 32.48625 -10.125 33.1875 C-9.78855469 33.868125 -9.45210937 34.54875 -9.10546875 35.25 C-6.97454414 38.78491173 -5.62350857 40.00964593 -1.5625 41.0625 C2.52972617 41.20361125 3.91589621 40.72226416 7.0625 38.1875 C10.25021076 34.64559916 12.0625 30.98344497 12.0625 26.1875 C11.0725 23.8775 10.0825 21.5675 9.0625 19.1875 C3.1225 19.1875 -2.8175 19.1875 -8.9375 19.1875 Z M13.0625 19.1875 C14.0625 23.1875 14.0625 23.1875 14.0625 23.1875 Z M-5.9375 43.1875 C-5.46139341 48.18661924 -3.90587781 51.16582683 -0.9375 55.1875 C3.32482316 51.22175752 3.32482316 51.22175752 6.0625 46.1875 C6.0625 45.1975 6.0625 44.2075 6.0625 43.1875 C2.1025 43.1875 -1.8575 43.1875 -5.9375 43.1875 Z M-22.5625 54.75 C-24.26504746 57.30172287 -24.26504746 57.30172287 -23.9375 61.1875 C-8.0975 61.1875 7.7425 61.1875 24.0625 61.1875 C23.66395548 55.55049163 23.66395548 55.55049163 21.4609375 53.359375 C17.04957898 50.25950144 13.35761877 48.29064974 8.0625 47.1875 C7.72476563 47.80238281 7.38703125 48.41726562 7.0390625 49.05078125 C6.59304687 49.85902344 6.14703125 50.66726562 5.6875 51.5 C5.24664062 52.30050781 4.80578125 53.10101563 4.3515625 53.92578125 C3.32736665 55.72277943 2.20982862 57.46650708 1.0625 59.1875 C-2.41655046 58.02781651 -2.74888872 57.35002073 -4.5625 54.3125 C-4.98789062 53.61382812 -5.41328125 52.91515625 -5.8515625 52.1953125 C-6.9375 50.1875 -6.9375 50.1875 -7.9375 47.1875 C-13.223818 47.1875 -18.9259728 51.20005678 -22.5625 54.75 Z " fill="#000000" transform="translate(39.9375,7.8125)"/>
<path d="M0 0 C0.66 0 1.32 0 2 0 C2 0.99 2 1.98 2 3 C2.99 3 3.98 3 5 3 C5 3.66 5 4.32 5 5 C4.01 5 3.02 5 2 5 C2 5.99 2 6.98 2 8 C1.34 8 0.68 8 0 8 C0 7.01 0 6.02 0 5 C-0.99 5 -1.98 5 -3 5 C-3 4.34 -3 3.68 -3 3 C-2.01 3 -1.02 3 0 3 C0 2.01 0 1.02 0 0 Z " fill="#000000" transform="translate(39,14)"/>
<path d="M0 0 C0.99 0 1.98 0 3 0 C3 0.99 3 1.98 3 3 C2.01 3 1.02 3 0 3 C0 2.01 0 1.02 0 0 Z " fill="#000000" transform="translate(44,33)"/>
<path d="M0 0 C0.99 0 1.98 0 3 0 C3 0.99 3 1.98 3 3 C2.01 3 1.02 3 0 3 C0 2.01 0 1.02 0 0 Z " fill="#000000" transform="translate(33,33)"/>
<path d="M0 0 C0.66 0 1.32 0 2 0 C2 0.66 2 1.32 2 2 C1.34 2 0.68 2 0 2 C0 1.34 0 0.68 0 0 Z " fill="#000000" transform="translate(60,65)"/>
<path d="M0 0 C0.66 0 1.32 0 2 0 C2 0.66 2 1.32 2 2 C1.34 2 0.68 2 0 2 C0 1.34 0 0.68 0 0 Z " fill="#000000" transform="translate(56,65)"/>
<path d="M0 0 C0.66 0 1.32 0 2 0 C2 0.66 2 1.32 2 2 C1.34 2 0.68 2 0 2 C0 1.34 0 0.68 0 0 Z " fill="#000000" transform="translate(52,65)"/>
<path d="M0 0 C0.66 0 1.32 0 2 0 C2 0.66 2 1.32 2 2 C1.34 2 0.68 2 0 2 C0 1.34 0 0.68 0 0 Z " fill="#000000" transform="translate(48,65)"/>
<path d="M0 0 C0.66 0 1.32 0 2 0 C2 0.66 2 1.32 2 2 C1.34 2 0.68 2 0 2 C0 1.34 0 0.68 0 0 Z " fill="#000000" transform="translate(44,65)"/>
<path d="M0 0 C0.66 0 1.32 0 2 0 C2 0.66 2 1.32 2 2 C1.34 2 0.68 2 0 2 C0 1.34 0 0.68 0 0 Z " fill="#000000" transform="translate(34,65)"/>
<path d="M0 0 C0.66 0 1.32 0 2 0 C2 0.66 2 1.32 2 2 C1.34 2 0.68 2 0 2 C0 1.34 0 0.68 0 0 Z " fill="#000000" transform="translate(30,65)"/>
<path d="M0 0 C0.66 0 1.32 0 2 0 C2 0.66 2 1.32 2 2 C1.34 2 0.68 2 0 2 C0 1.34 0 0.68 0 0 Z " fill="#000000" transform="translate(26,65)"/>
<path d="M0 0 C0.66 0 1.32 0 2 0 C2 0.66 2 1.32 2 2 C1.34 2 0.68 2 0 2 C0 1.34 0 0.68 0 0 Z " fill="#000000" transform="translate(22,65)"/>
<path d="M0 0 C0.66 0 1.32 0 2 0 C2 0.66 2 1.32 2 2 C1.34 2 0.68 2 0 2 C0 1.34 0 0.68 0 0 Z " fill="#000000" transform="translate(18,65)"/>
</svg>
