<?xml version="1.0" standalone="no"?>
<!DOCTYPE svg PUBLIC "-//W3C//DTD SVG 20010904//EN"
 "http://www.w3.org/TR/2001/REC-SVG-20010904/DTD/svg10.dtd">
<svg version="1.0" xmlns="http://www.w3.org/2000/svg"
 width="64.000000pt" height="64.000000pt" viewBox="0 0 64.000000 64.000000"
 preserveAspectRatio="xMidYMid meet">

<g transform="translate(0.000000,64.000000) scale(0.100000,-0.100000)"
fill="#000000" stroke="none">
<path d="M72 528 c-9 -9 -12 -72 -12 -220 l0 -208 260 0 260 0 0 208 c0 148
-3 211 -12 220 -17 17 -479 17 -496 0z m311 -42 c18 -7 43 -25 56 -40 18 -19
34 -26 63 -26 l38 0 0 -140 0 -140 -220 0 -220 0 0 140 0 140 38 0 c29 0 45 7
63 26 47 51 119 67 182 40z m93 3 c10 -17 -13 -36 -27 -22 -12 12 -4 33 11 33
5 0 12 -5 16 -11z m60 0 c10 -17 -13 -36 -27 -22 -12 12 -4 33 11 33 5 0 12
-5 16 -11z"/>
<path d="M252 450 c-65 -40 -89 -118 -57 -180 15 -29 15 -30 -10 -30 -18 0
-25 -5 -25 -20 0 -16 7 -20 30 -20 20 0 30 -5 30 -15 0 -12 18 -15 105 -15 87
0 105 3 105 15 0 9 9 15 25 15 18 0 25 5 25 20 0 15 -7 20 -24 20 -25 0 -25 1
-10 35 19 47 18 84 -6 123 -42 68 -124 91 -188 52z m86 -52 c19 -19 14 -28
-15 -28 l-28 -1 33 -27 c18 -15 32 -34 32 -42 0 -21 -43 -57 -48 -42 -2 7 -10
12 -18 12 -8 0 -14 5 -14 10 0 6 14 10 30 10 17 0 30 4 30 8 0 5 -13 18 -30
30 -35 26 -37 38 -12 63 21 22 25 22 40 7z"/>
</g>
</svg>
